HIERARCHY
ROOT Hips
{
 OFFSET 0.000000 0.000000 0.000000
 CHANNELS 6 Xposition Yposition Zposition Yrotation Xrotation Zrotation
 JOINT Chest
 {
  OFFSET 0.000000 9.585900 0.002600
  CHANNELS 3 Yrotation Xrotation Zrotation
  JOINT Chest2
  {
   OFFSET 0.000000 9.601200 -0.005300
   CHANNELS 3 Yrotation Xrotation Zrotation
   JOINT Chest3
   {
    OFFSET 0.000000 9.561800 0.000000
    CHANNELS 3 Yrotation Xrotation Zrotation
    JOINT Chest4
    {
     OFFSET 0.000000 9.552100 0.000000
     CHANNELS 3 Yrotation Xrotation Zrotation
     JOINT Neck
     {
      OFFSET 0.000000 14.453000 0.000000
      CHANNELS 3 Yrotation Xrotation Zrotation
      JOINT Head
      {
       OFFSET 0.000000 8.936500 -0.011300
       CHANNELS 3 Yrotation Xrotation Zrotation
       End Site
       {
        OFFSET 0.000000 17.073600 -0.006000
       }
      }
     }
     JOINT RightCollar
     {
      OFFSET -2.921100 9.558500 0.000000
      CHANNELS 3 Yrotation Xrotation Zrotation
      JOINT RightShoulder
      {
       OFFSET -13.519700 0.000000 0.000000
       CHANNELS 3 Yrotation Xrotation Zrotation
       JOINT RightElbow
       {
        OFFSET 0.000000 -29.696600 0.000000
        CHANNELS 3 Yrotation Xrotation Zrotation
        JOINT RightWrist
        {
         OFFSET 0.000000 -24.004700 0.000000
         CHANNELS 3 Yrotation Xrotation Zrotation
         End Site
         {
          OFFSET 0.000000 -17.728500 0.000000
         }
        }
       }
      }
     }
     JOINT LeftCollar
     {
      OFFSET 2.921100 9.558500 0.000000
      CHANNELS 3 Yrotation Xrotation Zrotation
      JOINT LeftShoulder
      {
       OFFSET 13.519700 0.000000 0.000000
       CHANNELS 3 Yrotation Xrotation Zrotation
       JOINT LeftElbow
       {
        OFFSET 0.000000 -29.696600 0.000000
        CHANNELS 3 Yrotation Xrotation Zrotation
        JOINT LeftWrist
        {
         OFFSET 0.000000 -24.004700 0.000000
         CHANNELS 3 Yrotation Xrotation Zrotation
         End Site
         {
          OFFSET 0.000000 -17.728500 0.000000
         }
        }
       }
      }
     }
    }
   }
  }
 }
 JOINT RightHip
 {
  OFFSET -7.771700 -0.012900 -0.001300
  CHANNELS 3 Yrotation Xrotation Zrotation
  JOINT RightKnee
  {
   OFFSET 0.000000 -40.869800 0.001200
   CHANNELS 3 Yrotation Xrotation Zrotation
   JOINT RightAnkle
   {
    OFFSET 0.000000 -39.717900 0.002100
    CHANNELS 3 Yrotation Xrotation Zrotation
    JOINT RightToe
    {
     OFFSET 0.000000 -4.965400 11.033500
     CHANNELS 3 Yrotation Xrotation Zrotation
     End Site
     {
      OFFSET 0.000000 -1.423100 5.872300
     }
    }
   }
  }
 }
 JOINT LeftHip
 {
  OFFSET 7.771700 -0.012900 -0.001300
  CHANNELS 3 Yrotation Xrotation Zrotation
  JOINT LeftKnee
  {
   OFFSET 0.000000 -40.869800 0.001200
   CHANNELS 3 Yrotation Xrotation Zrotation
   JOINT LeftAnkle
   {
    OFFSET 0.000000 -39.717900 0.002100
    CHANNELS 3 Yrotation Xrotation Zrotation
    JOINT LeftToe
    {
     OFFSET 0.000000 -4.965400 11.033500
     CHANNELS 3 Yrotation Xrotation Zrotation
     End Site
     {
      OFFSET 0.000000 -1.423100 5.872300
     }
    }
   }
  }
 }
}
MOTION
Frames: 15
Frame Time: 0.008333
0.000000 85.388000 0.000000 0.000000 -5.767877 0.000000 0.000000 11.653817 0.000000 0.000000 -5.885947 0.000000 0.000000 -0.000000 0.000000 0.000000 -0.000000 0.000000 0.000000 12.528835 0.000000 0.000000 0.711642 0.000000 0.000000 -0.000000 0.000000 0.000000 0.000000 -90.000000 0.000000 -2.309062 0.000000 0.000000 2.309062 0.000000 0.000000 -0.000000 0.000000 0.000000 -0.000000 90.000000 0.000000 -2.309062 0.000000 0.000000 2.309062 0.000000 0.000000 8.520406 0.000000 0.000000 1.905762 0.000000 -0.000000 -4.658285 0.000000 0.000000 -0.000000 0.000000 0.000000 8.520406 0.000000 0.000000 1.905762 0.000000 -0.000000 -4.658285 0.000000 0.000000 -0.000000 0.000000
-120.057588 58.329756 101.718069 176.669438 -30.041257 -1.755281 6.755695 17.493017 3.264087 0.686398 2.033446 0.225461 1.139535 3.359530 0.385979 5.493518 15.249037 2.354951 -8.875973 9.738866 -2.633823 -16.018713 -17.502011 -1.056908 -2.278035 -1.789070 0.617296 -5.646400 -16.769998 -18.128979 162.501351 -48.197357 -148.642268 9.558101 -15.743536 -44.909069 -3.652328 -3.386458 1.330144 34.383790 -16.184416 -2.474312 -175.951043 -33.308106 168.518461 -10.630440 -20.455703 38.664801 2.735388 -44.653910 -1.200894 -11.978716 66.913978 -13.677790 7.222955 23.394870 4.562770 -0.434577 -16.434202 1.868634 -4.417876 -42.891533 1.994234 24.052050 65.830033 22.134909 -16.925048 6.731948 -0.891732 0.006530 -0.212794 -0.089000
-120.067699 58.329013 101.712204 176.699065 -30.033753 -1.747508 6.837384 17.372582 3.257243 0.695469 2.012622 0.224722 1.154782 3.326270 0.384943 5.585387 15.159439 2.364319 -8.963805 9.833045 -2.609745 -16.169881 -17.322149 -1.002868 -2.548274 -1.668931 0.636083 -6.238397 -16.576345 -18.099888 163.159319 -46.945269 -149.744893 9.433984 -15.575480 -44.964171 -3.582012 -3.334075 1.434340 34.527839 -16.298744 -2.465352 -176.142003 -33.236294 168.568966 -10.543742 -20.379279 38.569419 2.747429 -44.656094 -1.255783 -11.961060 66.928394 -13.646540 7.216139 23.360716 4.537523 -0.441185 -16.414183 1.891798 -4.467346 -42.913478 1.951592 24.123679 65.833607 22.205635 -16.896994 6.782509 -0.874424 -0.018540 -0.218839 -0.094645
-120.078665 58.331228 101.700694 176.754425 -30.056637 -1.741884 6.894813 17.301931 3.242636 0.705003 1.994958 0.223819 1.170789 3.298043 0.383634 5.676839 15.080015 2.371194 -9.055471 9.915346 -2.581133 -16.366322 -17.156503 -0.901261 -2.814341 -1.585050 0.660774 -6.785400 -16.344356 -18.065984 163.663531 -45.715609 -150.697154 9.331726 -15.411585 -45.021588 -3.534350 -3.301285 1.539370 34.496451 -16.331778 -2.444221 -176.319466 -33.270087 168.580252 -10.451653 -20.235039 38.428769 2.752763 -44.630514 -1.317216 -11.851180 66.988768 -13.541067 7.144546 23.267684 4.514306 -0.440822 -16.367698 1.915097 -4.520544 -42.904632 1.887282 24.129394 65.848318 22.230041 -16.864919 6.830916 -0.879941 -0.023104 -0.237805 -0.095329
-120.082706 58.330851 101.694594 176.773054 -30.040860 -1.751359 6.990725 17.203999 3.258665 0.714392 1.980211 0.222773 1.186550 3.274454 0.382102 5.763887 15.011032 2.375472 -9.148907 9.985444 -2.550717 -16.572217 -17.011750 -0.792340 -3.068725 -1.534804 0.688178 -7.321188 -16.078372 -18.024859 164.066065 -44.532035 -151.526803 9.242378 -15.263884 -45.098594 -3.506971 -3.289522 1.638578 34.303145 -16.288518 -2.417564 -176.461362 -33.395175 168.543680 -10.350955 -20.015550 38.245841 2.755869 -44.643940 -1.326118 -11.836813 67.005764 -13.522670 7.118901 23.230861 4.491434 -0.430992 -16.346539 1.936421 -4.564958 -42.929070 1.874096 24.016824 65.874503 22.158744 -16.813297 6.863180 -0.908460 -0.006257 -0.241520 -0.084823
-120.085843 58.330569 101.688970 176.785869 -30.018424 -1.748719 7.087104 17.112839 3.266326 0.722914 1.967498 0.221437 1.200795 3.254011 0.380033 5.842125 14.950620 2.375830 -9.241631 10.045151 -2.520540 -16.711644 -16.893149 -0.732893 -3.300700 -1.501163 0.717886 -7.885220 -15.792484 -17.975077 164.440350 -43.416508 -152.274434 9.149688 -15.153486 -45.202510 -3.498686 -3.289895 1.725147 33.963583 -16.186144 -2.388417 -176.559509 -33.605941 168.455209 -10.228922 -19.713179 38.024337 2.776744 -44.658573 -1.344104 -11.834530 67.020055 -13.518476 7.095534 23.155920 4.456794 -0.433583 -16.291018 1.974976 -4.578615 -42.955225 1.858859 24.000519 65.881580 22.152623 -16.815980 6.888484 -0.908379 0.006695 -0.243971 -0.081782
-120.091531 58.331409 101.681975 176.849553 -30.000614 -1.737776 7.125438 17.040867 3.241589 0.729960 1.955897 0.219747 1.212601 3.235352 0.377366 5.908078 14.896556 2.372074 -9.330817 10.097061 -2.492869 -16.914569 -16.783786 -0.630046 -3.494862 -1.422903 0.771713 -8.505690 -15.547386 -17.930525 164.855567 -42.386566 -152.974773 9.053834 -15.080110 -45.336288 -3.504741 -3.288818 1.792543 33.499867 -16.049287 -2.360348 -176.626584 -33.902268 168.312336 -10.072179 -19.325234 37.770864 2.792455 -44.668893 -1.407058 -11.786705 67.056843 -13.479990 7.033797 23.076188 4.442425 -0.422361 -16.244746 1.996331 -4.629331 -42.985815 1.789300 24.060515 65.883437 22.215021 -16.783294 6.929871 -0.898869 -0.021996 -0.253643 -0.084716
-120.092783 58.333315 101.674662 176.910223 -29.986641 -1.732387 7.159815 16.979310 3.227406 0.734932 1.944748 0.217889 1.221026 3.217555 0.374386 5.958504 14.847364 2.365445 -9.413033 10.143035 -2.470381 -17.077721 -16.688248 -0.553591 -3.658384 -1.351452 0.816798 -9.180131 -15.286904 -17.864303 165.350572 -41.462080 -153.643221 8.960662 -15.034205 -45.491724 -3.509404 -3.280331 1.835919 32.928198 -15.895723 -2.343521 -176.683349 -34.289249 168.111711 -9.875887 -18.857500 37.491439 2.861956 -44.665570 -1.481500 -11.820408 67.080711 -13.487624 6.953134 22.980473 4.413886 -0.395875 -16.181522 2.027166 -4.705074 -43.006882 1.720069 24.165880 65.866683 22.328893 -16.718552 6.967039 -0.900423 -0.082886 -0.250942 -0.086032
-120.091551 58.336045 101.667287 176.956436 -29.975450 -1.715806 7.195883 16.924958 3.214912 0.737754 1.934156 0.216105 1.181382 3.235857 0.371586 6.036031 14.768943 2.351190 -9.486988 10.184426 -2.453488 -17.147015 -16.604955 -0.532190 -3.804036 -1.386127 0.787083 -9.894828 -14.901040 -17.726010 165.925604 -40.664381 -154.276785 8.868235 -15.011565 -45.656032 -3.496665 -3.273296 1.857370 32.251583 -15.732401 -2.346630 -176.761290 -34.785125 167.863120 -9.651108 -18.320476 37.200463 2.886418 -44.668517 -1.540589 -11.766021 67.120793 -13.436727 6.910408 22.885404 4.404918 -0.398444 -16.125053 2.041736 -4.722412 -43.018709 1.660337 24.126538 65.858649 22.311371 -16.726348 7.008174 -0.913619 -0.053471 -0.271068 -0.091995
-120.094695 58.338958 101.660153 177.093391 -29.960280 -1.701592 7.093652 16.899335 3.144363 0.778730 1.903030 0.222330 1.207603 3.202996 0.367901 6.035615 14.747799 2.349460 -9.555131 10.221932 -2.440474 -17.279099 -16.530401 -0.487344 -3.923017 -1.368372 0.767544 -10.619634 -14.557457 -17.574990 166.552309 -40.011268 -154.862124 8.771039 -15.012171 -45.821882 -3.459773 -3.280370 1.862574 31.472678 -15.567652 -2.369591 -176.911642 -35.412852 167.594899 -9.412414 -17.723859 36.922459 2.918926 -44.666009 -1.674780 -11.676928 67.186841 -13.340357 6.782587 22.752591 4.371788 -0.365650 -16.052258 2.071686 -4.778489 -43.033834 1.537274 24.033042 65.834275 22.257567 -16.731916 7.043045 -0.968277 -0.000975 -0.268627 -0.075894
-120.099103 58.343274 101.651502 177.214620 -29.958572 -1.657392 6.996342 16.888573 3.053574 0.818165 1.874497 0.234116 1.228711 3.171423 0.367402 6.028522 14.731215 2.347494 -9.632474 10.287726 -2.432834 -17.394395 -16.492600 -0.438410 -4.025816 -1.313419 0.753455 -11.320841 -14.233835 -17.405182 167.181563 -39.511885 -155.379801 8.672316 -15.039478 -45.985267 -3.398514 -3.304489 1.854843 30.600083 -15.417855 -2.410533 -177.185438 -36.192873 167.331475 -9.170602 -17.084407 36.684098 2.972668 -44.650928 -1.838385 -11.636445 67.244021 -13.288515 6.702476 22.630524 4.350174 -0.345826 -15.985920 2.090894 -4.841827 -43.025263 1.367267 24.082746 65.775903 22.323032 -16.685344 7.087608 -0.978428 -0.029972 -0.262799 -0.088964
-120.099286 58.347352 101.644654 177.319907 -29.950521 -1.620090 7.017099 16.812592 3.041948 0.756556 1.896198 0.219529 1.227119 3.158070 0.366469 5.992386 14.750109 2.338137 -9.662878 10.305023 -2.431379 -17.590242 -16.447014 -0.338765 -4.073258 -1.278588 0.748451 -11.975382 -13.911399 -17.220810 167.752580 -39.162521 -155.803769 8.576020 -15.097114 -46.139149 -3.278986 -3.388022 1.839438 29.644895 -15.295631 -2.477494 -177.605287 -37.144355 167.078739 -8.933128 -16.435428 36.499106 2.983076 -44.648271 -1.965898 -11.566030 67.297888 -13.223871 6.659323 22.526319 4.342902 -0.352705 -15.931277 2.099445 -4.884824 -43.027840 1.227035 24.084380 65.734115 22.344792 -16.654481 7.134703 -0.995069 -0.034599 -0.262928 -0.090290
-120.096325 58.353620 101.635177 177.414537 -29.966270 -1.587962 7.009708 16.775854 3.032928 0.735801 1.899105 0.212987 1.223653 3.145129 0.366343 5.952240 14.772510 2.321698 -9.665472 10.242695 -2.402958 -17.738657 -16.334127 -0.317294 -4.119330 -1.266516 0.708883 -12.572795 -13.524583 -16.982636 168.208872 -38.957108 -156.104024 8.482347 -15.180752 -46.274148 -3.156859 -3.477441 1.832454 28.617711 -15.204975 -2.585536 -178.165632 -38.272069 166.830896 -8.701454 -15.813490 36.361092 3.018808 -44.614880 -2.077505 -11.555801 67.338751 -13.209332 6.602891 22.426338 4.332032 -0.346411 -15.878052 2.112695 -4.933900 -43.006116 1.104703 24.137334 65.698893 22.398319 -16.620417 7.169260 -0.979905 -0.069041 -0.238288 -0.088185
-120.096256 58.358339 101.628916 177.526109 -29.962596 -1.543569 6.959974 16.733622 2.995478 0.732698 1.890531 0.213388 1.218636 3.131492 0.367013 6.002023 14.669057 2.344471 -9.779957 10.330122 -2.414568 -17.846410 -16.255776 -0.311380 -4.232717 -1.137249 0.595870 -13.127034 -13.089729 -16.685065 168.504001 -38.893019 -156.252950 8.393525 -15.271872 -46.384530 -3.128877 -3.444583 1.804460 27.523010 -15.148046 -2.742308 -178.842971 -39.564880 166.576387 -8.472653 -15.246686 36.251487 3.049231 -44.598618 -2.214110 -11.534728 67.380994 -13.190580 6.541871 22.329210 4.317610 -0.322707 -15.829911 2.123338 -4.992478 -43.004328 0.958484 24.133543 65.650582 22.416347 -16.602813 7.192866 -1.023876 -0.057800 -0.214814 -0.078103
-120.088711 58.363426 101.623513 177.647445 -29.960076 -1.547537 6.913044 16.685496 3.008845 0.728714 1.880898 0.214193 1.212172 3.116255 0.368282 6.004033 14.610938 2.361409 -9.852936 10.389285 -2.431638 -17.943582 -16.187382 -0.308362 -4.300578 -1.018543 0.519527 -13.577362 -12.663350 -16.406205 168.604151 -38.971842 -156.231398 8.304857 -15.355645 -46.470093 -3.060019 -3.445718 1.775089 26.362843 -15.125277 -2.943817 -179.606085 -41.003702 166.311842 -8.245563 -14.758787 36.144167 3.038152 -44.572989 -2.277971 -11.564075 67.409477 -13.224050 6.480747 22.197612 4.314446 -0.302664 -15.747689 2.129482 -5.093391 -42.999788 0.877714 24.100526 65.605539 22.409629 -16.592335 7.246555 -1.063816 -0.044518 -0.219321 -0.074255
